<?xml version="1.0"?>
<svg xmlns="http://www.w3.org/2000/svg" xmlns:xlink="http://www.w3.org/1999/xlink" viewBox="0 0 64 64" width="512" height="512"><defs><linearGradient id="New_Gradient_Swatch_1" x1="32" y1="0.282" x2="32" y2="64.24" gradientUnits="userSpaceOnUse"><stop offset="0" stop-color="#fff33b"/><stop offset="0.014" stop-color="#fee72e"/><stop offset="0.042" stop-color="#fed51b"/><stop offset="0.07" stop-color="#fdca10"/><stop offset="0.1" stop-color="#fdc70c"/><stop offset="0.4" stop-color="#f3903f"/><stop offset="0.8" stop-color="#ed683c"/><stop offset="1" stop-color="#e93e3a"/></linearGradient><linearGradient id="New_Gradient_Swatch_1-2" x1="19" y1="0.282" x2="19" y2="64.24" xlink:href="#New_Gradient_Swatch_1"/></defs><g id="Cloud"><path d="M43,52H56.184a3,3,0,1,0,0-2H44V46h7a10.991,10.991,0,0,0,4.768-20.9A10.673,10.673,0,0,0,56,23a10.986,10.986,0,0,0-7.707-10.484A9.018,9.018,0,0,0,40,7a8.915,8.915,0,0,0-4.064.974,12.989,12.989,0,0,0-23.577,4.045A11,11,0,0,0,7.46,32.5L4.151,35.808a1,1,0,0,0,0,1.414L6.929,40H3a1,1,0,0,0-1,1v8a1,1,0,0,0,1,1H6.929L4.151,52.778a1,1,0,0,0,0,1.414l5.657,5.657a1,1,0,0,0,1.414,0L14,57.071V61a1,1,0,0,0,1,1h8a1,1,0,0,0,1-1V57.071l2.778,2.778a1,1,0,0,0,1.414,0l5.657-5.657a1,1,0,0,0,0-1.414L31.071,50H35a1,1,0,0,0,1-1V46h2V59a1,1,0,0,0,1,1H56.184a3,3,0,1,0,0-2H40V46h2v5A1,1,0,0,0,43,52Zm16-2a1,1,0,1,1-1,1A1,1,0,0,1,59,50Zm0,8a1,1,0,1,1-1,1A1,1,0,0,1,59,58ZM4,23a9.01,9.01,0,0,1,9.006-9h0c.027,0,.144.009.171.009a1,1,0,0,0,.987-.835A10.989,10.989,0,0,1,34.7,9.812a1,1,0,0,0,1.437.359A6.925,6.925,0,0,1,40,9a7.014,7.014,0,0,1,6.6,4.673,1,1,0,0,0,.691.635A8.985,8.985,0,0,1,54,23c0,.28-.032.555-.058.83A9,9,0,0,0,46,19a8.886,8.886,0,0,0-3.306.631,12.982,12.982,0,0,0-23.366,4.5,10.945,10.945,0,0,0-8.176,5.973.99.99,0,0,0-1.344.046l-.86.86A8.986,8.986,0,0,1,4,23Zm10,6.378v3.551l-1.311-1.311A8.981,8.981,0,0,1,14,29.378ZM34,48H29.239a1.117,1.117,0,0,0-.962.715c-.039.1-.078.2-.121.3a1,1,0,0,0,.208,1.111l3.364,3.363-4.243,4.243-3.363-3.364a1,1,0,0,0-1.111-.208c-.1.043-.2.082-.377.152a1,1,0,0,0-.634.931V60H16V55.239a1.117,1.117,0,0,0-.715-.962c-.1-.039-.2-.078-.3-.121a1,1,0,0,0-1.111.208l-3.363,3.364L6.272,53.485l3.364-3.363a1,1,0,0,0,.208-1.111c-.043-.1-.082-.2-.152-.377A1,1,0,0,0,8.761,48H4V42H8.761a1.117,1.117,0,0,0,.962-.715c.039-.1.078-.2.121-.3a1,1,0,0,0-.208-1.111L6.272,36.515l4.243-4.243,3.363,3.364a1,1,0,0,0,1.111.208c.1-.043.2-.082.377-.152A1,1,0,0,0,16,34.761V30h6v4.761a1.117,1.117,0,0,0,.715.962c.1.039.2.078.3.121a1,1,0,0,0,1.111-.208l3.363-3.364,4.243,4.243-3.364,3.363a1,1,0,0,0-.208,1.111c.043.1.082.2.152.377a1,1,0,0,0,.931.634H34Zm1-8H31.071l2.778-2.778a1,1,0,0,0,0-1.414l-5.657-5.657a1,1,0,0,0-1.414,0L24,32.929V29a1,1,0,0,0-1-1H15.35a8.939,8.939,0,0,1,4.9-1.963,1,1,0,0,0,.906-.834,10.984,10.984,0,0,1,20.3-3.794,1,1,0,0,0,1.321.379A6.934,6.934,0,0,1,46,21a7.014,7.014,0,0,1,6.6,4.673,1,1,0,0,0,.691.635A8.993,8.993,0,0,1,51,44H36V41A1,1,0,0,0,35,40Z" style="fill:url(#New_Gradient_Swatch_1)"/><path d="M19,37a8,8,0,1,0,8,8A8.009,8.009,0,0,0,19,37Zm0,14a6,6,0,1,1,6-6A6.006,6.006,0,0,1,19,51Z" style="fill:url(#New_Gradient_Swatch_1-2)"/></g></svg>
