<?xml version="1.0" encoding="iso-8859-1"?>
<!-- Generator: Adobe Illustrator 22.1.0, SVG Export Plug-In . SVG Version: 6.00 Build 0)  -->
<svg xmlns="http://www.w3.org/2000/svg" xmlns:xlink="http://www.w3.org/1999/xlink" version="1.1" id="Layer_1_1_" x="0px" y="0px" viewBox="0 0 64 64" style="enable-background:new 0 0 64 64;" xml:space="preserve" width="512" height="512">
<linearGradient id="SVGID_1_" gradientUnits="userSpaceOnUse" x1="32" y1="1" x2="32" y2="63" gradientTransform="matrix(1 0 0 -1 0 64)">
	<stop offset="0" style="stop-color:#9F2FFF"/>
	<stop offset="1" style="stop-color:#0BB1D3"/>
</linearGradient>
<path style="fill:url(#SVGID_1_);" d="M46.875,31c-5.949,0-11.631,2.841-15.2,7.6l-1.05,1.4l1.05,1.4  c3.569,4.759,9.251,7.6,15.2,7.6s11.631-2.841,15.2-7.6l1.05-1.4l-1.05-1.4C58.506,33.841,52.824,31,46.875,31z M53.875,40  c0,3.86-3.14,7-7,7s-7-3.14-7-7s3.14-7,7-7S53.875,36.14,53.875,40z M33.275,40.2l-0.15-0.2l0.15-0.2  c1.688-2.25,3.906-4.015,6.406-5.185c-1.129,1.504-1.806,3.365-1.806,5.385s0.677,3.881,1.806,5.384  C37.181,44.215,34.963,42.45,33.275,40.2z M60.475,40.2c-1.688,2.25-3.906,4.015-6.406,5.185c1.129-1.504,1.806-3.365,1.806-5.385  s-0.677-3.881-1.806-5.384c2.5,1.17,4.718,2.935,6.406,5.185l0.15,0.2L60.475,40.2z M46.875,45c2.757,0,5-2.243,5-5s-2.243-5-5-5  s-5,2.243-5,5S44.118,45,46.875,45z M46.875,37c1.654,0,3,1.346,3,3s-1.346,3-3,3s-3-1.346-3-3S45.221,37,46.875,37z M12.875,40.247  V43h-2v2h2v13c0,2.757,2.243,5,5,5s5-2.243,5-5V45h2v-2h-2v-2.753C29.509,38.201,34.403,32.193,34.824,25h28.051V1h-6v22h-2V5h-6v18  h-2V9h-6v14h-2V13h-6v3.017C30.011,10.658,24.364,7,17.875,7c-9.374,0-17,7.626-17,17C0.875,31.634,5.934,38.107,12.875,40.247z   M58.875,3h2v20h-2V3z M50.875,7h2v16h-2V7z M42.875,11h2v12h-2V11z M20.875,58c0,1.654-1.346,3-3,3s-3-1.346-3-3V45h6V58z   M20.875,43h-6v-2.281c0.976,0.175,1.975,0.281,3,0.281s2.024-0.107,3-0.281V43z M34.875,15h2v8h-2V15z M17.875,9  c8.271,0,15,6.729,15,15s-6.729,15-15,15s-15-6.729-15-15S9.604,9,17.875,9z M17.875,37c7.168,0,13-5.832,13-13s-5.832-13-13-13  s-13,5.832-13,13S10.707,37,17.875,37z M17.875,13c6.065,0,11,4.935,11,11s-4.935,11-11,11s-11-4.935-11-11S11.81,13,17.875,13z   M18.875,25h-2v-2h2V25z M22.875,25h-2v-2h2V25z M26.875,25h-2v-2h2V25z M14.875,25h-2v-2h2V25z M10.875,25h-2v-2h2V25z"/>
</svg>
